<?xml version="1.0" standalone="no"?>
<!DOCTYPE svg PUBLIC "-//W3C//DTD SVG 20010904//EN"
 "http://www.w3.org/TR/2001/REC-SVG-20010904/DTD/svg10.dtd">
<svg version="1.0" xmlns="http://www.w3.org/2000/svg"
 width="383.000000pt" height="383.000000pt" viewBox="0 0 383.000000 383.000000"
 preserveAspectRatio="xMidYMid meet">
<metadata>
Created by potrace 1.11, written by Peter Selinger 2001-2013
</metadata>
<g transform="translate(0.000000,383.000000) scale(0.100000,-0.100000)"
fill="#000000" stroke="none">
<path d="M2918 3825 c-2 -2 -16 -5 -33 -8 -16 -3 -104 -25 -195 -50 -91 -24
-286 -77 -435 -117 -148 -39 -412 -110 -585 -157 -173 -46 -322 -86 -330 -88
-8 -2 -73 -20 -145 -39 -123 -32 -208 -55 -420 -112 -49 -14 -98 -26 -107 -29
-70 -16 -181 -51 -218 -68 -99 -46 -221 -200 -271 -343 -42 -123 -47 -177 -54
-674 -15 -958 -15 -1084 0 -1145 28 -121 53 -180 110 -261 67 -94 151 -149
245 -161 25 -3 54 -6 65 -8 19 -2 20 -10 23 -283 1 -155 5 -282 8 -282 5 0 60
39 94 68 65 53 585 440 590 437 3 -1 51 -6 107 -9 56 -4 112 -9 125 -11 13 -2
66 -7 118 -11 52 -4 111 -8 130 -10 19 -1 69 -5 110 -8 41 -3 91 -8 110 -10
19 -3 73 -8 120 -11 47 -3 103 -8 125 -10 22 -2 74 -7 115 -10 41 -3 95 -8
120 -10 25 -3 80 -7 122 -10 43 -4 86 -8 96 -10 10 -1 65 -6 122 -10 57 -4
113 -9 125 -11 27 -6 204 -6 213 0 4 2 25 7 46 10 21 4 65 17 98 30 228 92
387 288 443 545 14 62 14 310 0 536 -5 88 -14 264 -20 390 -3 61 -7 148 -10
195 -2 47 -7 144 -10 215 -3 72 -8 162 -10 200 -3 39 -7 129 -10 200 -3 72 -7
162 -10 200 -2 39 -6 135 -10 215 -9 233 -24 302 -88 423 -105 198 -305 312
-538 306 -43 -1 -80 -3 -81 -4z m-200 -944 c143 -28 260 -127 336 -283 59
-122 87 -258 90 -431 8 -488 -218 -832 -568 -863 -34 -2 -200 -6 -371 -7
l-310 -2 -2 70 c0 39 -4 259 -8 490 -3 231 -8 531 -10 667 l-4 247 52 10 c29
6 68 13 87 16 37 6 131 22 165 29 70 14 196 36 230 42 22 3 56 9 75 13 55 12
180 13 238 2z m-1011 -158 c-3 -10 -10 -40 -16 -68 -6 -27 -38 -171 -72 -320
-33 -148 -62 -277 -64 -286 -2 -9 -18 -79 -35 -155 -17 -77 -33 -148 -36 -159
-5 -26 -74 -334 -80 -360 -3 -11 -7 -31 -10 -45 -3 -14 -9 -29 -14 -34 -4 -4
-56 -9 -116 -10 l-107 -1 -4 25 c-2 14 -7 48 -13 75 -5 28 -12 70 -15 95 -3
25 -8 52 -10 60 -2 8 -7 35 -10 60 -3 25 -8 52 -10 60 -2 8 -6 37 -10 64 -3
27 -8 52 -10 55 -1 3 -6 35 -10 71 -4 36 -8 67 -10 70 -3 5 -11 53 -20 117 -2
15 -10 69 -18 118 -9 50 -18 107 -20 128 -6 50 -17 60 -18 16 0 -19 -2 -43 -4
-54 -2 -11 -6 -38 -10 -60 -3 -22 -7 -51 -10 -64 -2 -12 -7 -42 -9 -65 -3 -22
-8 -52 -11 -66 -3 -14 -7 -41 -10 -60 -3 -19 -7 -46 -9 -60 -9 -49 -55 -336
-61 -380 -3 -25 -7 -52 -9 -60 -1 -8 -6 -37 -10 -65 -14 -91 -6 -85 -111 -85
l-93 0 -6 28 c-4 15 -8 36 -10 47 -3 11 -16 76 -30 145 -29 135 -79 385 -151
740 -24 124 -48 236 -51 250 -3 14 -3 22 1 19 3 -4 23 -3 43 1 36 9 99 19 136
23 12 1 20 -5 21 -18 4 -36 17 -109 20 -115 1 -3 6 -32 10 -65 3 -32 8 -62 10
-65 1 -3 6 -25 9 -50 3 -25 8 -56 11 -70 2 -13 7 -42 10 -65 3 -22 8 -47 10
-55 2 -8 7 -35 10 -60 4 -24 8 -47 10 -50 2 -3 6 -34 10 -70 3 -35 8 -67 10
-70 4 -8 18 -102 17 -122 0 -10 3 -20 7 -22 4 -3 8 0 8 7 1 24 15 142 18 147
2 3 6 29 10 59 4 30 8 61 10 70 1 9 6 39 9 66 4 28 9 57 11 65 2 8 6 38 10 65
5 45 12 88 31 209 3 21 7 46 9 55 6 31 26 170 28 190 1 16 12 22 54 31 29 5
78 15 109 21 31 6 60 7 64 2 8 -7 16 -49 25 -120 2 -11 5 -29 9 -40 3 -10 8
-36 11 -58 3 -23 8 -52 10 -65 3 -14 10 -52 15 -85 14 -82 19 -112 30 -170 5
-27 12 -66 15 -85 6 -40 16 -96 21 -125 2 -11 11 -66 20 -123 9 -56 18 -101
19 -100 2 2 6 26 9 53 8 58 24 159 31 195 3 14 21 113 40 220 19 107 36 204
39 215 2 11 11 63 20 115 18 106 21 122 37 198 7 37 15 52 27 53 9 0 24 2 32
4 25 5 73 14 115 21 22 3 42 8 44 10 2 2 13 4 23 4 14 0 18 -5 15 -17z"/>
<path d="M2436 2609 c-55 -9 -74 -12 -198 -29 -68 -10 -88 -17 -89 -29 -3 -53
15 -956 20 -982 0 -4 43 -5 94 -3 267 11 292 15 358 63 66 48 104 104 140 210
26 75 33 135 33 271 0 141 -7 197 -40 310 -24 84 -113 172 -185 184 -68 12
-85 12 -133 5z"/>
</g>
</svg>
